<svg xmlns="http://www.w3.org/2000/svg" xmlns:xlink="http://www.w3.org/1999/xlink" version="1.1" id="Layer_1" x="0px" y="0px" viewBox="0 0 180 132" style="enable-background:new 0 0 180 132;" xml:space="preserve"> <style type="text/css"> .st0{fill:#115DB9;} .st1{fill:#FFFFFF;} .st2{fill-rule:evenodd;clip-rule:evenodd;fill:#115DB9;} </style> <g> <path class="st0" d="M69.2,47c-7.2,5.3-16.1,8.3-25.7,8.3c-9.6,0-18.5-3.1-25.7-8.3L6,67c-17,28.8,3.9,65,37.5,65 c33.6,0,54.4-36.2,37.5-65L69.2,47z"/> <path class="st1" d="M69,46.6L43.5,3L18,46.6c7.1,5.3,16,8.4,25.5,8.4S61.9,51.9,69,46.6L69,46.6z"/> <path class="st2" d="M99.3,24.5c-0.1-0.1-0.2-0.2-0.3-0.2l-5.9,10C84.5,48.8,95,67,111.9,67c16.9,0,27.4-18.2,18.8-32.7l-5.9-10 c-0.1,0.1-0.2,0.2-0.3,0.2L111.9,3L99.3,24.5z"/> </g> </svg>